<svg id="icon-ice" data-name="icon-idce" xmlns="http://www.w3.org/2000/svg" viewBox="0 0 435.91 481.51">
							<path d="M127.26,114.1C126.78,31.76,305-36.93,361,116.73" transform="translate(-38.04 -15.24)" />
							<path d="M169,268.51c-26.84-160.88,247.28-212.75,238.66,12" transform="translate(-38.04 -15.24)" />
							<path d="M62.86,267.94C28,114.1,194.48,67.3,252.33,135.76" transform="translate(-38.04 -15.24)" />
							<path d="M375.4,166.77S437.88,95.6,457,71.59c25.66-32.21-26.09-69.33-52.66-27l-58.94,98" transform="translate(-38.04 -15.24)" />
							<path d="M361,280.51" transform="translate(-38.04 -15.24)" />
							<rect x="10" y="265.26" width="368.25" height="38.07" />
							<polygon points="332.75 471.51 55.88 471.51 35.88 303.33 352.75 303.33 332.75 471.51" />
						</svg>