<svg id="icon-pizza" data-name="icon-pizza" xmlns="http://www.w3.org/2000/svg" viewBox="0 0 489.92 484.57">
							<path d="M161.57,36.36,22,464.26a18.32,18.32,0,0,0,23,23.11l433.26-139.9A18.3,18.3,0,0,0,491,329.53c-1.7-57.72-26.89-277.47-310.19-305.73A18.31,18.31,0,0,0,161.57,36.36Z" transform="translate(-11.04 -13.71)" />
							<path d="M148.84,75.38S409.93,89.91,432.57,362.23" transform="translate(-11.04 -13.71)" />
							<ellipse cx="201.04" cy="168.92" rx="43.93" ry="41.35" />
							<ellipse cx="201.03" cy="367.67" rx="43.93" ry="46.14" />
							<path d="M301.81,335.53,240,275.89s41.45-34,66-7C331.93,297.27,301.81,335.53,301.81,335.53Z" transform="translate(-11.04 -13.71)" />
							<path d="M91.48,251.2c57.36,29,46.48,98.14-30.69,94.07" transform="translate(-11.04 -13.71)" />
							<path d="M377.6,201c-38.83,0-49.3,104,36.09,70.2" transform="translate(-11.04 -13.71)" />
							<path d="M141.94,456.07c-6.8-29.58-80.2-55-75.67,24.44" transform="translate(-11.04 -13.71)" />
						</svg>