<svg id="icon-truck" data-name="icon-truck" xmlns="http://www.w3.org/2000/svg" viewBox="0 0 800.75 563.82">
					<path d="M13,402.09H386.65" transform="translate(200.38 81.91)" />
					<path d="M521.19,402.09h42.73a26.45,26.45,0,0,0,26.45-26.45V11A10.56,10.56,0,0,0,579.83.46h-616A26.45,26.45,0,0,0-60.82,17.3l-56.37,144.37a26.46,26.46,0,0,1-3.08,5.71l-65.21,91.7a26.5,26.5,0,0,0-4.9,15.33V391.54a10.55,10.55,0,0,0,10.55,10.55H-122" transform="translate(200.38 81.91)" />
					<path d="M521.19,402.09" transform="translate(200.38 81.91)" />
					<path d="M386.65,402.09" transform="translate(200.38 81.91)" />
					<circle cx="654.27" cy="486.32" r="67.29" />
					<circle cx="145.91" cy="486.32" r="67.5" />
					<circle cx="654.27" cy="484" r="9.18" />
					<circle cx="145.91" cy="486.32" r="9.18" />
					<path d="M521.19,104.25" transform="translate(200.38 81.91)" />
					<polyline points="721.56 214.75 721.56 370.09 416.97 370.09 416.97 214" />
					<line x1="721.56" y1="319.19" x2="416.97" y2="319.19" />
					<polygon class="fill" points="418.42 142.56 720.11 142.56 750.11 214 388.42 214 418.42 142.56" />
					<polyline points="123.44 142.56 350.31 142.56 352.56 484" />
					<line x1="80.11" y1="249.29" x2="351.02" y2="249.29" />
					<line x1="213.41" y1="484" x2="213.41" y2="142.56" />
					<circle cx="250.94" cy="334.81" r="4.5" />
					<rect x="-184.75" y="293.18" width="53.88" height="34.53" transform="translate(-120.25 682.81) rotate(-180)" />
					<path d="M150.64-71.91h166a0,0,0,0,1,0,0V.46a0,0,0,0,1,0,0H223a72.37,72.37,0,0,1-72.37-72.37v0A0,0,0,0,1,150.64-71.91Z" transform="translate(667.64 10.46) rotate(-180)" />
					<line x1="400.38" y1="12.63" x2="400.38" y2="82.38" />
				</svg>